<svg xmlns="http://www.w3.org/2000/svg" width="1046" height="193" viewBox="0 0 1046 193" fill="none"><path d="M52.868 77.575C59.28 77.575 64.1653 76.1247 67.524 73.224C71.0353 70.1707 72.791 65.5907 72.791 59.484C72.791 53.6827 70.959 49.2553 67.295 46.202C63.7837 42.996 58.593 41.393 51.723 41.393C49.2803 41.393 47.2193 41.4693 45.54 41.622C44.0133 41.622 42.4103 41.7747 40.731 42.08V77.575H52.868ZM40.96 151.084C39.2807 151.542 36.609 152 32.945 152.458C29.4337 152.916 25.9223 153.145 22.411 153.145C18.8997 153.145 15.77 152.84 13.022 152.229C10.4267 151.771 8.213 150.855 6.381 149.481C4.549 148.107 3.175 146.199 2.259 143.756C1.343 141.313 0.885001 138.107 0.885001 134.138V26.279C0.885001 23.073 1.72467 20.6303 3.404 18.951C5.236 17.119 7.67867 15.6687 10.732 14.6C15.9227 12.768 21.8003 11.4703 28.365 10.707C35.0823 9.79099 41.7997 9.33299 48.517 9.33299C69.585 9.33299 85.6913 13.8367 96.836 22.844C107.981 31.8513 113.553 44.0647 113.553 59.484C113.553 66.9647 112.332 73.7583 109.889 79.865C107.599 85.819 104.088 91.0097 99.355 95.437C94.775 99.7117 88.8973 103.07 81.722 105.513C74.6993 107.803 66.5317 108.948 57.219 108.948H40.96V151.084ZM186.468 155.664C177.461 155.664 169.064 154.443 161.278 152C153.645 149.405 146.927 145.588 141.126 140.55C135.477 135.512 130.974 129.176 127.615 121.543C124.409 113.91 122.806 104.979 122.806 94.75C122.806 84.674 124.409 76.0483 127.615 68.873C130.974 61.545 135.325 55.591 140.668 51.011C146.011 46.2783 152.118 42.8433 158.988 40.706C165.858 38.416 172.881 37.271 180.056 37.271C188.147 37.271 195.475 38.4923 202.04 40.935C208.757 43.3777 214.482 46.7363 219.215 51.011C224.1 55.2857 227.841 60.4 230.436 66.354C233.184 72.308 234.558 78.7963 234.558 85.819C234.558 91.0097 233.108 94.979 230.207 97.727C227.306 100.475 223.261 102.231 218.07 102.994L161.507 111.467C163.186 116.505 166.621 120.322 171.812 122.917C177.003 125.36 182.957 126.581 189.674 126.581C195.933 126.581 201.811 125.818 207.307 124.291C212.956 122.612 217.536 120.703 221.047 118.566C223.49 120.093 225.551 122.23 227.23 124.978C228.909 127.726 229.749 130.627 229.749 133.68C229.749 140.55 226.543 145.664 220.131 149.023C215.246 151.618 209.75 153.374 203.643 154.29C197.536 155.206 191.811 155.664 186.468 155.664ZM180.056 65.667C176.392 65.667 173.186 66.2777 170.438 67.499C167.843 68.7203 165.705 70.3233 164.026 72.308C162.347 74.14 161.049 76.2773 160.133 78.72C159.37 81.01 158.912 83.3763 158.759 85.819L197.918 79.407C197.46 76.3537 195.781 73.3003 192.88 70.247C189.979 67.1937 185.705 65.667 180.056 65.667ZM292.227 113.757C292.227 117.726 293.448 120.551 295.891 122.23C298.486 123.909 302.074 124.749 306.654 124.749C308.944 124.749 311.31 124.596 313.753 124.291C316.195 123.833 318.333 123.299 320.165 122.688C321.539 124.367 322.684 126.276 323.6 128.413C324.668 130.398 325.203 132.84 325.203 135.741C325.203 141.542 322.989 146.275 318.562 149.939C314.287 153.603 306.654 155.435 295.662 155.435C282.227 155.435 271.846 152.382 264.518 146.275C257.342 140.168 253.755 130.245 253.755 116.505V18.493C255.434 18.035 257.8 17.577 260.854 17.119C264.06 16.5083 267.418 16.203 270.93 16.203C277.647 16.203 282.838 17.4243 286.502 19.867C290.318 22.157 292.227 27.1187 292.227 34.752V49.408H322.226C323.142 51.0873 323.981 53.2247 324.745 55.82C325.661 58.2627 326.119 61.0107 326.119 64.064C326.119 69.4073 324.897 73.3003 322.455 75.743C320.165 78.033 317.035 79.178 313.066 79.178H292.227V113.757ZM441.898 37.271C451.058 37.271 459.531 38.4923 467.317 40.935C475.256 43.225 482.049 46.8127 487.698 51.698C493.347 56.5833 497.774 62.7663 500.98 70.247C504.186 77.575 505.789 86.3533 505.789 96.582C505.789 106.353 504.415 114.902 501.667 122.23C498.919 129.558 495.026 135.741 489.988 140.779C484.95 145.664 478.843 149.328 471.668 151.771C464.645 154.214 456.783 155.435 448.081 155.435C441.516 155.435 435.41 154.443 429.761 152.458V190.472C428.234 190.93 425.792 191.388 422.433 191.846C419.074 192.457 415.639 192.762 412.128 192.762C408.769 192.762 405.716 192.533 402.968 192.075C400.373 191.617 398.159 190.701 396.327 189.327C394.495 187.953 393.121 186.045 392.205 183.602C391.289 181.312 390.831 178.259 390.831 174.442V64.522C390.831 60.4 391.671 57.0413 393.35 54.446C395.182 51.8507 397.625 49.4843 400.678 47.347C405.411 44.2937 411.288 41.851 418.311 40.019C425.334 38.187 433.196 37.271 441.898 37.271ZM442.356 124.749C458.081 124.749 465.943 115.36 465.943 96.582C465.943 86.8113 463.958 79.5597 459.989 74.827C456.172 70.0943 450.6 67.728 443.272 67.728C440.371 67.728 437.776 68.1097 435.486 68.873C433.196 69.4837 431.211 70.247 429.532 71.163V121.543C431.364 122.459 433.349 123.222 435.486 123.833C437.623 124.444 439.913 124.749 442.356 124.749ZM564.404 151.771C562.725 152.076 560.206 152.458 556.847 152.916C553.641 153.527 550.359 153.832 547 153.832C543.641 153.832 540.588 153.603 537.84 153.145C535.245 152.687 533.031 151.771 531.199 150.397C529.367 149.023 527.917 147.191 526.848 144.901C525.932 142.458 525.474 139.329 525.474 135.512V2.692C527.153 2.38666 529.596 2.00499 532.802 1.547C536.161 0.936331 539.519 0.630997 542.878 0.630997C546.237 0.630997 549.214 0.859994 551.809 1.31799C554.557 1.77599 556.847 2.69199 558.679 4.06599C560.511 5.43999 561.885 7.34833 562.801 9.79099C563.87 12.081 564.404 15.1343 564.404 18.951V151.771ZM636.602 127.268C639.197 127.268 642.021 127.039 645.075 126.581C648.281 125.97 650.647 125.207 652.174 124.291V105.971L635.686 107.345C631.411 107.65 627.9 108.566 625.152 110.093C622.404 111.62 621.03 113.91 621.03 116.963C621.03 120.016 622.175 122.535 624.465 124.52C626.907 126.352 630.953 127.268 636.602 127.268ZM634.77 37.271C643.014 37.271 650.494 38.1107 657.212 39.79C664.082 41.4693 669.883 44.0647 674.616 47.576C679.501 50.9347 683.241 55.2857 685.837 60.629C688.432 65.8197 689.73 72.0027 689.73 79.178V130.474C689.73 134.443 688.585 137.726 686.295 140.321C684.157 142.764 681.562 144.901 678.509 146.733C668.585 152.687 654.616 155.664 636.602 155.664C628.51 155.664 621.182 154.901 614.618 153.374C608.206 151.847 602.633 149.557 597.901 146.504C593.321 143.451 589.733 139.558 587.138 134.825C584.695 130.092 583.474 124.596 583.474 118.337C583.474 107.803 586.603 99.7117 592.863 94.063C599.122 88.4143 608.816 84.903 621.946 83.529L651.945 80.323V78.72C651.945 74.2927 649.96 71.163 645.991 69.331C642.174 67.3463 636.602 66.354 629.274 66.354C623.472 66.354 617.824 66.9647 612.328 68.186C606.832 69.4073 601.87 70.934 597.443 72.766C595.458 71.392 593.779 69.331 592.405 66.583C591.031 63.6823 590.344 60.7053 590.344 57.652C590.344 53.6827 591.26 50.553 593.092 48.263C595.076 45.8203 598.053 43.7593 602.023 42.08C606.45 40.4007 611.641 39.1793 617.595 38.416C623.701 37.6527 629.426 37.271 634.77 37.271ZM784.065 81.468C784.065 76.7353 782.691 73.3003 779.943 71.163C777.348 68.873 773.76 67.728 769.18 67.728C766.127 67.728 763.073 68.1097 760.02 68.873C757.119 69.6363 754.6 70.7813 752.463 72.308V151.771C750.936 152.229 748.494 152.687 745.135 153.145C741.929 153.603 738.57 153.832 735.059 153.832C731.7 153.832 728.647 153.603 725.899 153.145C723.304 152.687 721.09 151.771 719.258 150.397C717.426 149.023 715.976 147.191 714.907 144.901C713.991 142.458 713.533 139.329 713.533 135.512V66.812C713.533 62.69 714.373 59.3313 716.052 56.736C717.884 54.1407 720.327 51.7743 723.38 49.637C728.571 45.973 735.059 42.996 742.845 40.706C750.784 38.416 759.562 37.271 769.18 37.271C786.431 37.271 799.713 41.0877 809.026 48.721C818.339 56.2017 822.995 66.6593 822.995 80.094V151.771C821.468 152.229 819.026 152.687 815.667 153.145C812.461 153.603 809.102 153.832 805.591 153.832C802.232 153.832 799.179 153.603 796.431 153.145C793.836 152.687 791.622 151.771 789.79 150.397C787.958 149.023 786.508 147.191 785.439 144.901C784.523 142.458 784.065 139.329 784.065 135.512V81.468ZM905.895 155.664C896.887 155.664 888.491 154.443 880.705 152C873.071 149.405 866.354 145.588 860.553 140.55C854.904 135.512 850.4 129.176 847.042 121.543C843.836 113.91 842.233 104.979 842.233 94.75C842.233 84.674 843.836 76.0483 847.042 68.873C850.4 61.545 854.751 55.591 860.095 51.011C865.438 46.2783 871.545 42.8433 878.415 40.706C885.285 38.416 892.307 37.271 899.483 37.271C907.574 37.271 914.902 38.4923 921.467 40.935C928.184 43.3777 933.909 46.7363 938.642 51.011C943.527 55.2857 947.267 60.4 949.863 66.354C952.611 72.308 953.985 78.7963 953.985 85.819C953.985 91.0097 952.534 94.979 949.634 97.727C946.733 100.475 942.687 102.231 937.497 102.994L880.934 111.467C882.613 116.505 886.048 120.322 891.239 122.917C896.429 125.36 902.383 126.581 909.101 126.581C915.36 126.581 921.238 125.818 926.734 124.291C932.382 122.612 936.962 120.703 940.474 118.566C942.916 120.093 944.977 122.23 946.657 124.978C948.336 127.726 949.176 130.627 949.176 133.68C949.176 140.55 945.97 145.664 939.558 149.023C934.672 151.618 929.176 153.374 923.07 154.29C916.963 155.206 911.238 155.664 905.895 155.664ZM899.483 65.667C895.819 65.667 892.613 66.2777 889.865 67.499C887.269 68.7203 885.132 70.3233 883.453 72.308C881.773 74.14 880.476 76.2773 879.56 78.72C878.796 81.01 878.338 83.3763 878.186 85.819L917.345 79.407C916.887 76.3537 915.207 73.3003 912.307 70.247C909.406 67.1937 905.131 65.667 899.483 65.667ZM1011.65 113.757C1011.65 117.726 1012.87 120.551 1015.32 122.23C1017.91 123.909 1021.5 124.749 1026.08 124.749C1028.37 124.749 1030.74 124.596 1033.18 124.291C1035.62 123.833 1037.76 123.299 1039.59 122.688C1040.97 124.367 1042.11 126.276 1043.03 128.413C1044.1 130.398 1044.63 132.84 1044.63 135.741C1044.63 141.542 1042.42 146.275 1037.99 149.939C1033.71 153.603 1026.08 155.435 1015.09 155.435C1001.65 155.435 991.272 152.382 983.944 146.275C976.769 140.168 973.181 130.245 973.181 116.505V18.493C974.861 18.035 977.227 17.577 980.28 17.119C983.486 16.5083 986.845 16.203 990.356 16.203C997.074 16.203 1002.26 17.4243 1005.93 19.867C1009.75 22.157 1011.65 27.1187 1011.65 34.752V49.408H1041.65C1042.57 51.0873 1043.41 53.2247 1044.17 55.82C1045.09 58.2627 1045.55 61.0107 1045.55 64.064C1045.55 69.4073 1044.32 73.3003 1041.88 75.743C1039.59 78.033 1036.46 79.178 1032.49 79.178H1011.65V113.757Z" fill="#545454"></path></svg>